<?xml version="1.0" encoding="UTF-8" standalone="no"?><!DOCTYPE svg PUBLIC "-//W3C//DTD SVG 1.1//EN" "http://www.w3.org/Graphics/SVG/1.1/DTD/svg11.dtd"><svg width="100%" height="100%" viewBox="0 0 183 182" version="1.1" xmlns="http://www.w3.org/2000/svg" xmlns:xlink="http://www.w3.org/1999/xlink" xml:space="preserve" xmlns:serif="http://www.serif.com/" style="fill-rule:evenodd;clip-rule:evenodd;stroke-linejoin:round;stroke-miterlimit:2;"><rect id="icon-face-2" x="0.929" y="0.117" width="181.417" height="181.417" style="fill:none;"/><path d="M14.735,97.221c-0.511,-0.084 -0.879,-0.549 -0.833,-1.073c0.042,-0.481 0.418,-0.853 0.879,-0.907c0.092,-0.026 0.6,-0.17 1.117,-0.325c3.074,-0.924 10.916,-3.273 16.855,-3.409c2.038,-0.047 3.864,0.172 5.246,0.746c0.584,0.243 1.095,0.548 1.524,0.919c0.279,-0.296 0.58,-0.552 0.897,-0.772c-1.416,-0.994 -3.66,-2.581 -5.954,-5.089c-3.119,0.291 -6.89,-1.334 -9.304,-5.331c-3.287,-5.443 -5.456,-12.53 1.238,-22.684c0.067,-0.102 0.152,-0.191 0.252,-0.262c0.263,-0.188 0.597,-0.237 0.9,-0.136c0.199,0.066 0.372,0.193 0.496,0.366c11.472,16.002 11.28,17.74 11.499,18.422c1.373,4.28 0.074,7.221 -2.171,8.66c-0.218,0.14 -0.447,0.265 -0.686,0.377c2.443,2.502 4.743,3.938 5.853,4.75c0.604,-0.143 1.234,-0.21 1.876,-0.217c-2.341,-3.914 -1.651,-7.634 -0.409,-11.28c0.657,-1.929 1.472,-3.833 1.99,-5.733c0.476,-1.744 0.701,-3.483 0.223,-5.236c-0.115,-0.422 0.058,-0.87 0.426,-1.106c0.369,-0.236 0.848,-0.204 1.183,0.078c1.999,1.683 3.978,2.984 5.677,4.355c1.831,1.477 3.345,3.041 4.291,5.153c1.095,2.444 1.439,5.652 0.502,10.403c0.407,-0.154 0.838,-0.298 1.294,-0.432c0.592,-0.174 1.836,-0.138 3.506,0.242c0.111,0.025 0.224,0.052 0.339,0.08c-0.763,-3.218 -2.768,-14.162 -1.466,-25.951c0.969,-8.775 3.774,-18.004 10.203,-24.919c7.843,-8.436 15.501,-12.271 23.446,-15.965c7.761,-3.608 15.802,-7.079 24.564,-14.805c0.414,-0.365 1.046,-0.325 1.411,0.089c0.365,0.414 0.325,1.046 -0.089,1.411c-8.937,7.881 -17.128,11.439 -25.044,15.118c-7.731,3.594 -15.194,7.306 -22.825,15.513c-6.129,6.592 -8.756,15.411 -9.68,23.776c-1.399,12.661 1.112,24.319 1.59,25.917c0.043,0.145 0.052,0.291 0.032,0.432c3.298,1.079 7.543,3.018 11.558,5.907c0.963,0.693 2.492,2.351 3.725,4.37c0.552,-0.82 1.135,-1.56 1.738,-2.212c1.928,-2.083 4.088,-3.276 6.175,-3.41c3.439,-0.221 6.939,2.4 8.925,9.41c1.464,5.168 -0.923,9.122 -4.611,12.049c-5.059,4.014 -12.605,6.029 -14.773,6.694c-0.17,0.76 -0.453,1.957 -0.848,3.38c5.051,-5.824 14.73,-7.377 24.652,-3.894c0.332,0.117 0.584,0.402 0.651,0.756c0.003,0.017 0.006,0.033 0.008,0.05c0.047,0.341 -0.084,0.674 -0.336,0.892c-0.001,0.001 -0.001,0.001 -0.002,0.002c-3.195,2.769 -4.753,5.408 -6.251,7.784c-1.623,2.576 -3.188,4.861 -6.354,6.753c-1.996,1.193 -4.121,1.68 -6.141,1.688c0.705,0.707 1.269,1.46 1.709,2.154c2.322,0.186 5.069,1.586 7.841,3.701c0.189,0.144 0.379,0.292 0.568,0.443c2.491,-0.068 4.995,-1.204 9.069,3.498c2.917,3.367 5.751,12.879 5.831,14.661l0,0.004c0.013,0.317 -0.123,0.622 -0.373,0.823l-0.001,0.001c-0.543,0.435 -1.296,0.629 -2.217,0.513c-1.02,-0.128 -2.309,-0.657 -3.686,-1.523c-2.986,-1.878 -6.461,-5.351 -8.492,-9.153c-1.32,-2.472 -2.024,-5.083 -1.688,-7.504c-1.327,-1.031 -2.644,-1.897 -3.903,-2.515c-0.429,-0.21 -0.85,-0.392 -1.262,-0.539c1.551,1.044 3.67,3.294 4.637,6.349c1.062,3.358 2.035,5.742 1.613,10.1c-0.012,0.176 -0.029,0.329 -0.048,0.456c-0.143,1.243 -0.397,2.643 -0.787,4.265c-0.818,3.394 -2.733,5.586 -4.387,6.547c-0.86,0.5 -1.681,0.681 -2.318,0.615c-0.655,-0.068 -1.169,-0.371 -1.505,-0.865c-0.283,-0.415 -0.451,-1.001 -0.357,-1.779c0.069,-0.573 0.121,-1.082 0.163,-1.538c-1.945,0.257 -3.849,0.061 -5.388,-0.446c-2.136,-0.704 -3.552,-2.043 -3.788,-3.494c-0.02,-0.126 -0.013,-0.281 0.025,-0.454c-1.78,-0.109 -3.416,-0.551 -4.809,-1.236c-2.733,-1.344 -4.545,-3.626 -4.854,-6.211c-0.375,-3.138 0.357,-5.304 1.685,-6.764c0.968,-1.064 2.288,-1.757 3.806,-2.152c-1.122,-1.759 -1.711,-4.105 -1.174,-6.456c-1.498,1.193 -3.55,2.216 -5.918,3.046c-0.225,0.079 -0.452,0.156 -0.682,0.231c-1.312,2.118 -1.739,4.835 -7.907,5.654c-4.416,0.587 -13.92,-2.274 -15.453,-3.186l-0.004,-0.002c-0.272,-0.163 -0.452,-0.445 -0.482,-0.764l-0,-0.002c-0.065,-0.693 0.187,-1.428 0.79,-2.134c0.668,-0.782 1.818,-1.568 3.298,-2.243c3.21,-1.463 8.021,-2.457 12.314,-2.063c2.79,0.256 5.359,1.103 7.197,2.714c1.591,-0.542 3.038,-1.166 4.246,-1.879c0.133,-0.079 0.264,-0.159 0.391,-0.239c-4.409,0.426 -7.059,-4.254 -7.105,-8.789c-0.001,-0.139 -0,-0.278 0.003,-0.417c-4.404,1.76 -8.573,2.893 -12.073,3.186c-4.274,0.357 -7.599,-0.569 -9.385,-2.885c-1.871,-2.426 -2.149,-6.552 0.31,-12.78c1.486,-3.762 3.366,-6.298 5.382,-7.98c-1.114,-0.779 -2.902,-2.116 -4.385,-3.765c-0.55,-0.612 -1.055,-1.267 -1.478,-1.951c-3.948,2.462 -8.24,2.251 -12.122,0.932c-5.922,-2.012 -10.843,-6.624 -11.815,-7.584Zm23.653,-2.372c-0.461,-0.486 -1.136,-0.797 -1.937,-1.008c-1.826,-0.482 -4.264,-0.406 -6.823,-0.081c-4.161,0.528 -8.629,1.74 -11.475,2.572c3.78,1.122 6.172,1.205 8.599,1.177c2.845,-0.033 5.736,-0.206 10.744,0.829c0.137,-1.417 0.453,-2.565 0.893,-3.489Zm4.112,-1.296c-0.497,0.182 -0.958,0.452 -1.364,0.834c-1.027,0.963 -1.65,2.602 -1.712,5.177c-0,0.015 -0.001,0.031 -0.001,0.046c-0.002,0.106 -0.004,0.214 -0.004,0.324c-0.006,1.651 1.011,3.213 2.217,4.554c1.649,1.834 3.707,3.247 4.635,3.872c0.829,-0.491 1.667,-0.862 2.499,-1.136c2.968,-0.979 5.882,-0.713 8.04,-0.217c-1.318,-1.771 -2.905,-4.211 -3.863,-6.774c-0.597,-1.597 -0.946,-3.239 -0.882,-4.812c-0.908,-0.431 -2.736,-1.281 -4.774,-1.785c-0.295,-0.073 -0.596,-0.14 -0.898,-0.197c-0.052,-0.008 -0.104,-0.017 -0.155,-0.028c-1.186,-0.21 -2.401,-0.263 -3.471,0.056c-0.085,0.042 -0.175,0.072 -0.266,0.088Zm13.513,-4.561c1.202,-5.023 1.043,-8.272 -0.04,-10.688c-0.814,-1.818 -2.145,-3.142 -3.722,-4.414c-0.775,-0.626 -1.609,-1.237 -2.475,-1.876c0.18,2.839 0.562,10.594 1.711,16.265c0.331,1.633 0.723,3.086 1.201,4.175c0.013,0.03 0.027,0.06 0.04,0.09c0.601,-1.323 1.641,-2.545 3.285,-3.552Zm-8.069,-14.284c-0.006,0.021 -0.011,0.041 -0.017,0.062c-0.529,1.939 -1.356,3.883 -2.026,5.851c-1.193,3.503 -1.889,7.099 1.14,10.909c1.3,0.266 2.55,0.69 3.583,1.098c-0.427,-1.114 -0.796,-2.464 -1.098,-3.952c-0.912,-4.502 -1.349,-10.308 -1.582,-13.968Zm26.191,58.7c-0.216,0.408 -0.441,0.803 -0.673,1.183c-0.434,0.71 -0.899,1.363 -1.392,1.942c0.57,-0.242 1.276,-0.398 2.211,-0.588c0.465,-0.095 0.915,-0.162 1.349,-0.203c-0.782,-0.736 -1.287,-1.544 -1.495,-2.333Zm24.071,-11.787c-10.057,-2.381 -19.308,0.742 -21.729,8.884c4.397,-1.92 15.596,-6.774 21.729,-8.884Zm-22.167,11.256c0.089,0.477 0.476,0.961 0.987,1.432c1.328,1.224 3.628,2.202 6.174,2.305c1.828,0.074 3.787,-0.31 5.615,-1.403c2.849,-1.703 4.228,-3.785 5.688,-6.103c1.076,-1.708 2.19,-3.538 3.852,-5.455c-6.731,2.351 -19.324,7.908 -22.315,9.223Zm7.845,9.212c-1.288,-2.16 -4.095,-5.224 -9.205,-4.185c-1.012,0.206 -1.672,0.259 -2.158,0.66c-0.287,0.236 -0.486,0.603 -0.706,1.17c-0.932,2.405 -0.162,4.928 1.183,6.478c0.904,-0.073 1.845,-0.069 2.799,0.002c3.872,0.286 7.938,1.613 10.282,2.823c0.045,0.023 0.09,0.047 0.134,0.07c-0.248,-1.282 -0.747,-3.022 -1.483,-5.237c-0,-0.001 -0,-0.001 -0.001,-0.002c-0.086,-0.257 -0.301,-0.807 -0.674,-1.478c-0.074,-0.088 -0.133,-0.19 -0.173,-0.301Zm-11.321,6.157c-1.658,0.2 -3.118,0.741 -4.106,1.827c-1.012,1.112 -1.464,2.788 -1.178,5.18c0.235,1.961 1.679,3.635 3.751,4.654c1.507,0.741 3.34,1.135 5.334,1.046c0.558,-0.52 1.099,-0.944 1.141,-0.972c0.397,-0.261 0.801,-0.507 1.206,-0.737l-0.026,0.001l-0.385,-0.111l-0.298,-0.168c-0.232,-0.163 -0.437,-0.392 -0.575,-0.618l-0.167,-0.353l-0.07,-0.316l0.005,-0.285l0.061,-0.242l0.177,-0.334l0.218,-0.251c0.192,-0.182 0.442,-0.333 0.709,-0.431c0.259,-0.095 0.53,-0.141 0.761,-0.138l0.36,0.044l0.279,0.1l0.07,0.045c1.408,-0.844 2.442,-1.467 3.213,-1.93c-1.825,0.23 -3.314,0.651 -4.759,1.042l-0.048,0.114l-0.314,0.354l-0.363,0.217c-0.382,0.162 -0.896,0.166 -1.325,0.077c-0.303,-0.063 -0.554,-0.163 -0.659,-0.216l-0.352,-0.277l-0.293,-0.492l-0.09,-0.452l0.034,-0.317l0.065,-0.171l-0.327,0.202c-0.181,0.085 -0.413,0.158 -0.712,0.196l-0.33,0.002l-0.333,-0.083l-0.295,-0.163l-0.229,-0.215l-0.186,-0.283l-0.108,-0.285l-0.059,-0.415l0.036,-0.404l0.194,-0.545l0.165,-0.259l0.215,-0.239c0.302,-0.284 0.721,-0.499 1.281,-0.527l0.035,-0.002l0.13,-0.012l0.037,0.003c4.006,-0.232 5.301,-1.22 11.439,0.734c0.027,-0.192 0.073,-0.368 0.138,-0.528c-0.244,-0.161 -0.537,-0.33 -0.87,-0.501c-2.168,-1.119 -5.93,-2.341 -9.512,-2.606c-0.959,-0.071 -1.906,-0.079 -2.801,0.007c-0.093,0.024 -0.189,0.034 -0.285,0.031Zm7.603,10.24c1.362,-0.65 2.645,-1.101 3.595,-1.327c0.877,-0.209 1.543,-0.208 1.873,-0.109l0.401,0.196l0.281,0.288l0.13,0.254l0.063,0.275l-0.047,0.473c-0.084,0.278 -0.415,0.778 -1.241,1.344c-2.676,1.832 -5.412,2.762 -7.96,3.013c-0.122,0.142 -0.235,0.286 -0.304,0.374c0.112,0.315 0.361,0.594 0.682,0.85c0.789,0.628 1.999,1.063 3.377,1.244c1.018,0.133 2.13,0.124 3.246,-0.069c0.121,-1.701 0.236,-2.396 1.394,-4.211c1.108,-1.736 1.091,-3.521 0.862,-5.045c-0.069,-0.456 -0.156,-0.892 -0.244,-1.301c-0.01,0.003 -0.019,0.006 -0.029,0.008c-0.575,0.154 -0.537,0.249 -5.95,3.498c-0.041,0.09 -0.084,0.172 -0.128,0.246Zm8.206,-8.384c0.57,-0.018 1.084,0.095 1.546,0.315l-0.091,-0.284c-0.514,-1.624 -1.4,-2.991 -2.289,-3.977c0.463,1.62 0.736,2.878 0.82,3.784c0.005,0.055 0.01,0.109 0.013,0.162Zm-50.578,-48.043c-0.192,-0.554 -0.318,-1.119 -0.36,-1.69c-5.021,-1.073 -7.863,-0.893 -10.66,-0.861c-2.109,0.025 -4.194,-0.027 -7.083,-0.697c1.986,1.477 4.616,3.12 7.501,4.1c3.394,1.153 7.161,1.381 10.602,-0.852Zm37.585,51.512l0.325,-0.195c0.144,-0.063 0.312,-0.114 0.491,-0.15c0.511,-0.104 1.133,-0.085 1.21,-0.082c0.197,0.007 0.381,0.072 0.535,0.179c0.804,-0.215 1.622,-0.437 2.5,-0.633c-1.84,-0.14 -3.106,0.163 -4.934,0.34l0.001,0.016l-0.046,0.292l-0.083,0.232Zm-33.825,-9.404c4.035,0.339 11.617,-0.228 18.055,-1.867c0.257,-0.065 0.512,-0.133 0.765,-0.201c-1.408,-0.839 -3.148,-1.281 -4.99,-1.45c-3.94,-0.361 -8.356,0.549 -11.302,1.892c-0.984,0.448 -1.799,0.94 -2.35,1.455c-0.062,0.058 -0.122,0.116 -0.178,0.172Zm18.776,0.011c-4.379,1.134 -9.294,1.776 -13.374,1.99c2.811,0.67 5.906,1.163 7.886,0.9c3.392,-0.451 4.691,-1.627 5.488,-2.89Zm16.591,-24.573c0.094,-0.057 0.316,-0.158 0.661,-0.267c1.879,-0.591 9.326,-2.474 14.268,-6.396c3.055,-2.424 5.142,-5.656 3.93,-9.937c-0.841,-2.969 -1.938,-5.06 -3.212,-6.373c-1.125,-1.16 -2.374,-1.669 -3.66,-1.586c-1.649,0.106 -3.312,1.127 -4.836,2.773c-0.758,0.819 -1.478,1.792 -2.137,2.895c0.149,0.343 0.284,0.689 0.401,1.038c0.721,2.14 0.78,4.335 -0.346,6.131c-0.746,1.189 -2.022,2.228 -4.058,2.926c-0.335,0.115 -0.706,0.044 -0.975,-0.187c-0.269,-0.231 -0.396,-0.587 -0.333,-0.935c0.616,-3.438 1.701,-6.515 3.064,-9.053c-1.113,-2.153 -2.74,-4.007 -3.714,-4.708c-4.857,-3.496 -10.064,-5.537 -13.317,-6.278c-1.194,-0.272 -2.074,-0.399 -2.497,-0.274c-3.273,0.964 -5.027,2.459 -5.728,4.274c-0.703,1.82 -0.355,3.892 0.388,5.881c1.609,4.304 5.135,8.229 5.665,8.823c0.313,0.35 0.341,0.871 0.066,1.252c-0.275,0.381 -0.777,0.52 -1.208,0.333c-0.888,-0.384 -5.34,-2.336 -9.947,-0.816c-3.08,1.016 -6.185,3.609 -8.385,9.181c-2.086,5.281 -2.173,8.766 -0.587,10.824c1.554,2.015 4.611,2.485 8.44,2.032c3.448,-0.409 7.494,-1.611 11.736,-3.391c0.46,-1.845 1.436,-3.395 2.907,-4.192c1.455,-0.789 3.437,-0.91 5.979,0.254c0.343,0.157 0.568,0.493 0.583,0.87c0.015,0.377 -0.184,0.73 -0.513,0.913c-2.404,1.337 -4.824,2.539 -7.197,3.574c-0.048,0.411 -0.068,0.833 -0.064,1.257c0.02,1.908 0.57,3.893 1.627,5.26c0.936,1.212 2.301,1.893 4.046,1.417c0.95,-0.259 1.796,-0.95 2.573,-1.867c0.871,-1.028 1.641,-2.339 2.318,-3.753c2.048,-4.274 3.239,-9.475 3.587,-11.083l0.009,-0.115c-0.337,0.411 -0.781,0.807 -1.361,1.173c-0.509,0.321 -0.918,0.401 -1.208,0.388l-0.258,-0.035l-0.261,-0.091l-0.24,-0.146l-0.196,-0.186l-0.226,-0.364l-0.036,-0.14c-0.765,-0.039 -6.93,-1.134 -11.838,-1.63c0.045,0.821 -0.045,1.335 -0.173,1.621l-0.144,0.256l-0.22,0.247l-0.3,0.198l-0.344,0.107l-0.315,0.013l-0.388,-0.085c-0.202,-0.073 -0.428,-0.204 -0.655,-0.395c-0.571,-0.481 -1.225,-1.435 -1.548,-2.122c-0.141,-0.3 -0.223,-0.564 -0.252,-0.747l-0.016,-0.281l0.043,-0.268l0.11,-0.258l0.053,-0.072c0.578,-1.036 1.43,-1.474 2.107,-1.465c0.63,0.008 1.306,0.346 1.676,1.212c5.048,0.486 11.673,1.684 12.197,1.671c0.017,-0 0.034,-0 0.051,-0c-2.224,-1.123 -5.926,-3.272 -8.661,-4.444c-0.133,0.516 -0.477,0.845 -0.819,1.023c-0.438,0.228 -1.04,0.267 -1.627,0.065c-0.773,-0.265 -1.479,-0.934 -1.645,-1.792c-0.031,-0.159 -0.044,-0.304 -0.044,-0.436l0.061,-0.468l0.127,-0.318l0.204,-0.288l0.26,-0.226l0.281,-0.153c0.218,-0.092 0.487,-0.148 0.806,-0.149c0.272,-0 0.603,0.047 0.981,0.138c0.263,-0.03 0.529,0.046 0.736,0.209c0.499,0.162 1.052,0.375 1.639,0.631c2.619,1.144 6.044,3.108 8.264,4.25c-0.494,-0.742 -1.554,-2.487 -6.13,-9.922l-0.212,0.13l-0.419,0.117c-0.338,0.05 -0.705,-0.002 -1.042,-0.129c-0.559,-0.21 -1.002,-0.634 -1.15,-0.905l-0.135,-0.461c-0.026,-0.243 -0.03,-0.803 0.081,-1.297c0.074,-0.33 0.201,-0.631 0.364,-0.854l0.285,-0.299l0.425,-0.233l0.337,-0.069l0.335,0.013l0.443,0.135c0.116,0.053 0.241,0.124 0.373,0.22c0.255,0.184 0.57,0.49 0.942,0.968c0.036,0.043 0.07,0.088 0.103,0.135c0.221,0.294 0.46,0.646 0.719,1.067c4.886,7.94 5.866,9.564 6.34,10.269l0.05,-0.019c-0.072,-0.214 -0.114,-0.365 -0.12,-0.431c-0.304,-3.468 -1.444,-6.627 -2.564,-8.769c-0.258,0.152 -0.506,0.205 -0.712,0.204l-0.3,-0.034l-0.271,-0.091l-0.417,-0.277c-0.335,-0.306 -0.665,-0.908 -0.852,-1.693c-0.183,-0.768 -0.169,-1.29 -0.089,-1.585l0.223,-0.467l0.32,-0.297l0.231,-0.114l0.24,-0.06l0.423,0.013l0.372,0.127c0.124,0.06 0.261,0.147 0.408,0.264c0.445,0.357 1.064,1.111 1.704,2.193c1.345,2.274 2.879,6.075 3.269,10.31l0.003,0.007c0.255,0.678 1.057,2.637 0.069,4.491Zm-1.773,-1.019c-0.045,0.079 -0.089,0.16 -0.131,0.241c0.05,-0.08 0.093,-0.16 0.131,-0.241Zm2.984,1.175c-0.093,-0.091 -0.223,-0.176 -0.407,-0.229c0.157,0.045 0.295,0.124 0.407,0.229Zm-14.987,6.88c1.108,-0.515 2.224,-1.065 3.34,-1.647c-0.789,-0.089 -1.462,0.033 -2.026,0.338c-0.551,0.299 -0.985,0.752 -1.315,1.309Zm17.522,-23.475c-0.668,1.497 -1.235,3.154 -1.668,4.937c0.57,-0.375 0.997,-0.805 1.297,-1.283c0.677,-1.08 0.688,-2.363 0.371,-3.654Zm-47.884,-17.867c-3.437,-4.506 -6.553,-11.304 -6.655,-21.531c-3.628,7.433 -1.857,12.871 0.744,17.176c1.565,2.591 3.816,4.023 5.911,4.354Zm2.476,-0.155c0.368,-0.117 0.716,-0.278 1.036,-0.483c1.636,-1.048 2.346,-3.247 1.346,-6.365c-0.201,-0.627 -0.088,-2.145 -9.513,-15.47c-0.082,10.991 3.458,17.939 7.131,22.318Zm70.997,77.272c-1.935,-3.557 -6.575,-9.58 -11.483,-14.057c-0.196,-0.179 -0.392,-0.355 -0.589,-0.529c0.073,1.637 0.66,3.334 1.531,4.965c1.864,3.49 5.051,6.679 7.792,8.402c0.916,0.576 1.774,0.986 2.507,1.163c0.083,0.02 0.164,0.039 0.242,0.055Zm-10.31,-15.692c3.354,3.035 6.592,6.788 9.013,10.08c-0.985,-2.716 -2.274,-5.573 -3.582,-7.083c-2.241,-2.586 -3.937,-3.025 -5.431,-2.997Zm-5.545,17.779c-1.27,1.151 -2.74,1.924 -4.256,2.387c-0.044,0.61 -0.107,1.333 -0.213,2.217c-0.022,0.18 -0.047,0.322 0.023,0.413c0.028,0.037 0.084,0.007 0.139,0.006c0.098,-0.001 0.204,-0.019 0.315,-0.049c0.202,-0.053 0.417,-0.145 0.64,-0.268c1.239,-0.686 2.622,-2.285 3.352,-4.707Zm-2.53,-12.306c-0.003,0.105 -0.004,0.284 0.014,0.418c0.039,0.3 0.111,0.641 0.193,1.015c0.49,2.227 1.241,5.43 -0.734,8.525c-0.721,1.13 -0.944,1.731 -1.045,2.566c2.042,-0.811 3.908,-2.354 5.01,-4.894c0.025,-0.225 0.046,-0.445 0.063,-0.66c0.006,-1.205 -0.217,-3.52 -0.98,-5.253c-0.503,-1.142 -1.246,-2.063 -2.52,-1.718Zm76.145,-78.925c0.525,2.689 1.385,4.881 2.271,6.973c2.19,5.17 4.502,9.775 2.805,19.18c-1.3,7.205 -11.14,39.784 -13.121,46.265c-0.271,0.888 -0.459,1.366 -0.463,1.373c-2.381,3.668 -6.857,5.71 -11.646,6.768c-6.882,1.52 -14.366,1.046 -16.48,0.987c-14.093,-0.392 -21.051,-4.846 -30.903,-13.42c-0.416,-0.362 -0.46,-0.995 -0.098,-1.411c0.362,-0.416 0.995,-0.46 1.411,-0.098c9.457,8.231 16.116,12.553 29.645,12.929c2.051,0.057 9.315,0.535 15.993,-0.941c4.203,-0.929 8.194,-2.609 10.326,-5.793l0.301,-0.979c1.971,-6.45 11.772,-38.866 13.065,-46.036c1.597,-8.852 -0.618,-13.179 -2.678,-18.045c-0.921,-2.175 -1.819,-4.45 -2.378,-7.229c-5.647,1.398 -8.221,0.804 -15.595,-1.416c-0.528,-0.159 -0.828,-0.717 -0.669,-1.246c0.159,-0.528 0.717,-0.828 1.246,-0.669c6.946,2.091 9.358,2.666 14.691,1.346c-0.444,-3.456 -0.355,-7.687 0.732,-13.292c0.105,-0.542 0.63,-0.896 1.172,-0.791c0.542,0.105 0.896,0.63 0.791,1.172c-1.008,5.193 -1.116,9.144 -0.731,12.38c0.429,-0.124 0.877,-0.257 1.347,-0.401c0.528,-0.161 1.087,0.137 1.248,0.665c0.161,0.528 -0.137,1.087 -0.665,1.248c-0.567,0.173 -1.106,0.333 -1.619,0.48Zm-72.861,1.109c-0.499,-0.235 -0.714,-0.832 -0.478,-1.331c0.235,-0.499 0.832,-0.714 1.331,-0.478c4.826,2.274 9.448,4.558 14.815,4.158c3.541,-0.264 7.395,-1.711 11.852,-5.064c0.441,-0.332 1.069,-0.243 1.4,0.198c0.332,0.441 0.243,1.069 -0.198,1.4c-4.845,3.645 -9.055,5.173 -12.905,5.46c-5.721,0.426 -10.673,-1.919 -15.816,-4.343Zm51.45,-15.681c0.293,-0.467 0.911,-0.609 1.379,-0.315c0.467,0.293 0.609,0.911 0.315,1.379c-4.218,6.722 -2.824,13.288 -0.364,18.219c2.538,5.086 6.212,8.478 6.371,8.668c1.123,1.342 4.642,4.901 4.395,9.144c-0.266,4.569 -2.8,5.642 -5.647,7.312c-0.476,0.279 -1.089,0.119 -1.368,-0.357c-0.279,-0.476 -0.119,-1.089 0.357,-1.368c2.269,-1.331 4.45,-2.06 4.662,-5.702c0.102,-1.747 -0.615,-3.336 -1.448,-4.634c-0.911,-1.418 -1.979,-2.508 -2.484,-3.111c-0.165,-0.198 -3.979,-3.752 -6.626,-9.058c-2.725,-5.461 -4.212,-12.731 0.459,-20.175Zm-0.356,40.516c0.548,-0.067 1.047,0.323 1.114,0.871c0.067,0.548 -0.323,1.047 -0.871,1.114c-2.093,0.256 -2.428,0.467 -4.247,1.795c-0.446,0.325 -1.072,0.227 -1.397,-0.218c-0.325,-0.446 -0.227,-1.072 0.218,-1.397c2.216,-1.617 2.634,-1.852 5.183,-2.164Zm3.971,13.647c0.596,-0.223 1.835,-0.791 3.258,-0.955c1.697,-0.197 3.626,0.14 5.194,2.014c0.604,0.722 1.077,2.128 1.237,3.836l0.288,-0.01c0.552,-0.018 1.014,0.415 1.032,0.967c0.018,0.552 -0.415,1.014 -0.967,1.032l-0.313,0.011c-0.01,0.193 -0.024,0.387 -0.042,0.583c-0.381,4.117 -2.528,8.711 -7.584,9.741c-9.463,1.927 -14.259,-1.091 -16.858,-2.092c-0.515,-0.198 -0.772,-0.778 -0.574,-1.293c0.198,-0.515 0.778,-0.772 1.293,-0.574c2.428,0.935 6.902,3.799 15.74,1.999c4.082,-0.831 5.684,-4.642 5.991,-7.965c0.01,-0.104 0.018,-0.207 0.025,-0.31c-5.754,0.312 -7.396,0.964 -12.273,1.708c-7.134,1.089 -15.354,1.355 -16.694,1.398c-0.527,0.017 -0.976,-0.378 -1.028,-0.902c-0.051,-0.525 0.313,-0.999 0.834,-1.084c5.473,-0.897 9.616,-4.153 13.409,-6.249c2.748,-1.519 5.338,-2.445 8.032,-1.853Zm7.7,4.98c-0.046,-0.485 -0.122,-0.938 -0.225,-1.342c-0.141,-0.555 -0.318,-1.011 -0.557,-1.297c-1.665,-1.991 -3.951,-1.328 -5.278,-0.838c-0.598,0.221 -1.053,0.424 -1.278,0.481l-0.336,0.045l-0.273,-0.033c-2.933,-0.744 -5.659,0.869 -8.76,2.74c-1.625,0.98 -3.337,2.045 -5.196,2.98c2.865,-0.208 6.213,-0.525 9.348,-1.004c4.98,-0.76 6.641,-1.419 12.555,-1.733Zm-28.28,-61.598c0.102,0.542 -0.255,1.066 -0.797,1.168c-0.542,0.102 -1.066,-0.255 -1.168,-0.797c-0.183,-0.967 -0.845,-1.752 -1.813,-2.403c-1.127,-0.757 -2.651,-1.319 -4.433,-1.707c-8.71,-1.898 -23.422,0.373 -30.319,6.928c-0.4,0.38 -1.034,0.364 -1.414,-0.036c-0.38,-0.4 -0.364,-1.034 0.036,-1.414c7.312,-6.95 22.889,-9.444 32.122,-7.432c2.497,0.544 4.542,1.423 5.895,2.587c1.018,0.876 1.666,1.918 1.89,3.105Zm22.296,-0.489c-0.316,0.453 -0.94,0.563 -1.392,0.247c-0.453,-0.316 -0.563,-0.94 -0.247,-1.392c0.382,-0.547 4.121,-7.618 12.277,-9.061c3.696,-0.654 6.931,1.976 7.41,2.374c0.424,0.353 0.483,0.984 0.13,1.408c-0.353,0.424 -0.984,0.483 -1.408,0.13c-0.375,-0.312 -2.885,-2.455 -5.783,-1.943c-7.339,1.298 -10.641,7.744 -10.985,8.236Z" style="fill:#b8474f;"/></svg>